<svg width="198" height="47" viewBox="0 0 198 47" fill="none" xmlns="http://www.w3.org/2000/svg">
<path fill-rule="evenodd" clip-rule="evenodd" d="M5.79895e-07 18.9251L0 27.1916C3.57056 27.1916 7.10616 26.4883 10.4049 25.1219C13.7037 23.7555 16.701 21.7528 19.2258 19.228C21.7506 16.7032 23.7533 13.7059 25.1197 10.4071C26.4861 7.10836 27.1894 3.57276 27.1894 0.00219727H18.923C18.9165 2.47681 18.4259 4.92643 17.4788 7.21298C16.5253 9.51486 15.1278 11.6064 13.366 13.3682C11.6042 15.13 9.51267 16.5275 7.21078 17.481C4.92423 18.4281 2.47462 18.9187 5.79895e-07 18.9251Z" fill="#707070"/>
<path fill-rule="evenodd" clip-rule="evenodd" d="M7.21078 17.4607C9.51267 16.5072 11.6042 15.1097 13.366 13.3479L19.2258 19.2077C16.701 21.7325 13.7037 23.7352 10.4049 25.1016C7.10616 26.468 3.57056 27.1713 0 27.1713L5.79895e-07 18.9048C2.47462 18.8984 4.92423 18.4078 7.21078 17.4607Z" fill="#707070"/>
<path fill-rule="evenodd" clip-rule="evenodd" d="M18.9229 46.114L27.1894 46.114C27.1894 42.5435 26.4861 39.0079 25.1197 35.7091C23.7533 32.4103 21.7506 29.413 19.2258 26.8882C16.701 24.3634 13.7037 22.3607 10.4049 20.9943C7.10616 19.6279 3.57056 18.9246 -1.18849e-06 18.9246L-8.27149e-07 27.1911C2.47461 27.1976 4.92423 27.6881 7.21078 28.6352C9.51267 29.5887 11.6042 30.9862 13.366 32.748C15.1278 34.5098 16.5253 36.6013 17.4788 38.9032C18.4259 41.1898 18.9165 43.6394 18.9229 46.114Z" fill="#A0A0A0"/>
<path fill-rule="evenodd" clip-rule="evenodd" d="M46.1133 27.1913L46.1133 18.9249C42.5427 18.9249 39.0071 19.6281 35.7084 20.9945C32.4096 22.3609 29.4122 24.3637 26.8875 26.8885C24.3627 29.4132 22.36 32.4106 20.9936 35.7093C19.6272 39.0081 18.9239 42.5437 18.9239 46.1143L27.1903 46.1143C27.1968 43.6396 27.6874 41.19 28.6345 38.9035C29.588 36.6016 30.9855 34.51 32.7473 32.7483C34.5091 30.9865 36.6006 29.5889 38.9025 28.6355C41.1891 27.6883 43.6387 27.1978 46.1133 27.1913Z" fill="#D0D0D0"/>
<path fill-rule="evenodd" clip-rule="evenodd" d="M46.1133 18.9249L46.1133 27.1913C42.5427 27.1913 39.0071 26.4881 35.7083 25.1217C32.4096 23.7553 29.4122 21.7525 26.8875 19.2278C24.3627 16.703 22.36 13.7056 20.9936 10.4069C19.6272 7.10811 18.9239 3.57251 18.9239 0.00195075L27.1903 0.00195147C27.1968 2.47657 27.6874 4.92618 28.6345 7.21273C29.588 9.51462 30.9855 11.6062 32.7473 13.368C34.5091 15.1297 36.6006 16.5273 38.9025 17.4807C41.1891 18.4279 43.6387 18.9184 46.1133 18.9249Z" fill="white"/>
<path d="M82.5023 34.2654C80.1314 34.2654 78.1367 33.741 76.5181 32.6924C74.8996 31.6209 73.7597 30.1733 73.0986 28.3496L77.1336 25.9901C78.0683 28.4294 79.9035 29.649 82.6391 29.649C83.9613 29.649 84.9302 29.4096 85.5457 28.9309C86.1612 28.4522 86.469 27.848 86.469 27.1185C86.469 26.2751 86.0928 25.6253 85.3405 25.1694C84.5882 24.6907 83.2432 24.1777 81.3055 23.6306C80.234 23.3115 79.3221 22.9923 78.5698 22.6731C77.8403 22.354 77.0994 21.9322 76.3472 21.4079C75.6177 20.8608 75.0591 20.1769 74.6716 19.3562C74.284 18.5355 74.0903 17.578 74.0903 16.4838C74.0903 14.3181 74.854 12.5969 76.3813 11.3203C77.9315 10.0209 79.7895 9.37117 81.9552 9.37117C83.8929 9.37117 85.5913 9.8499 87.0503 10.8074C88.5321 11.742 89.6833 13.0529 90.504 14.7398L86.5374 17.0309C85.5799 14.9792 84.0525 13.9533 81.9552 13.9533C80.9749 13.9533 80.1998 14.1813 79.6299 14.6372C79.0828 15.0704 78.8092 15.6403 78.8092 16.347C78.8092 17.0993 79.117 17.7148 79.7325 18.1936C80.3708 18.6495 81.579 19.151 83.3572 19.6982C84.0867 19.9261 84.6338 20.1085 84.9986 20.2453C85.3861 20.3593 85.899 20.553 86.5374 20.8266C87.1985 21.0774 87.7 21.3167 88.0419 21.5447C88.4067 21.7727 88.817 22.0804 89.273 22.468C89.7289 22.8555 90.0709 23.2545 90.2988 23.6648C90.5496 24.0752 90.7548 24.5767 90.9144 25.1694C91.0967 25.7393 91.1879 26.3662 91.1879 27.0501C91.1879 29.2614 90.3786 31.0168 88.7601 32.3162C87.1643 33.6156 85.0784 34.2654 82.5023 34.2654ZM104.54 16.689H109.259L103.036 33.7866C102.147 36.2487 100.961 38.0268 99.4795 39.1211C98.0205 40.2381 96.1967 40.7397 94.0082 40.6257V36.5222C95.1937 36.545 96.1283 36.2943 96.8122 35.7699C97.5189 35.2456 98.0775 34.4021 98.4878 33.2395L91.4778 16.689H96.2993L100.745 28.1786L104.54 16.689ZM120.865 16.2102C122.734 16.2102 124.273 16.8371 125.481 18.091C126.712 19.3448 127.328 21.0774 127.328 23.2887V33.7866H122.917V23.8358C122.917 22.6959 122.609 21.8297 121.993 21.2369C121.378 20.6214 120.557 20.3137 119.531 20.3137C118.391 20.3137 117.48 20.667 116.796 21.3737C116.112 22.0804 115.77 23.1405 115.77 24.5539V33.7866H111.359V16.689H115.77V18.6039C116.841 17.0081 118.54 16.2102 120.865 16.2102ZM146.858 33.7866H141.729L135.506 26.0243V33.7866H131.094V9.8499H135.506V24.2119L141.387 16.689H146.653L139.78 25.1352L146.858 33.7866ZM151.552 27.0501C152.145 29.1931 153.752 30.2645 156.374 30.2645C158.061 30.2645 159.337 29.6946 160.203 28.5547L163.76 30.6065C162.073 33.0457 159.588 34.2654 156.305 34.2654C153.478 34.2654 151.21 33.4105 149.5 31.7007C147.791 29.9909 146.936 27.8366 146.936 25.2378C146.936 22.6617 147.779 20.5188 149.466 18.8091C151.153 17.0765 153.319 16.2102 155.963 16.2102C158.471 16.2102 160.534 17.0765 162.153 18.8091C163.794 20.5416 164.615 22.6845 164.615 25.2378C164.615 25.8077 164.558 26.4118 164.444 27.0501H151.552ZM151.484 23.6306H160.203C159.953 22.468 159.428 21.6017 158.63 21.0318C157.855 20.4618 156.966 20.1769 155.963 20.1769C154.778 20.1769 153.797 20.4846 153.022 21.1002C152.247 21.6929 151.734 22.5364 151.484 23.6306ZM172.105 19.6298C172.516 18.5355 173.188 17.7148 174.123 17.1677C175.08 16.6206 176.14 16.347 177.303 16.347V21.2711C175.958 21.1116 174.75 21.3851 173.678 22.0918C172.63 22.7985 172.105 23.9726 172.105 25.6139V33.7866H167.694V16.689H172.105V19.6298ZM184.294 19.6298C184.704 18.5355 185.377 17.7148 186.312 17.1677C187.269 16.6206 188.329 16.347 189.492 16.347V21.2711C188.147 21.1116 186.938 21.3851 185.867 22.0918C184.818 22.7985 184.294 23.9726 184.294 25.6139V33.7866H179.883V16.689H184.294V19.6298ZM194.25 33.3763C193.68 33.9462 192.996 34.2312 192.198 34.2312C191.401 34.2312 190.717 33.9462 190.147 33.3763C189.577 32.8064 189.292 32.1224 189.292 31.3246C189.292 30.5267 189.577 29.8428 190.147 29.2728C190.717 28.7029 191.401 28.418 192.198 28.418C192.996 28.418 193.68 28.7029 194.25 29.2728C194.82 29.8428 195.105 30.5267 195.105 31.3246C195.105 32.1224 194.82 32.8064 194.25 33.3763Z" fill="#A7A1E8"/>
<path fill-rule="evenodd" clip-rule="evenodd" d="M3.60453e-07 18.8764L0 27.1226C3.56179 27.1226 7.0887 26.421 10.3794 25.058C13.67 23.695 16.66 21.6971 19.1786 19.1786C21.6971 16.66 23.695 13.67 25.058 10.3794C26.421 7.0887 27.1226 3.56179 27.1226 0H18.8764C18.8699 2.46851 18.3806 4.91207 17.4358 7.19298C16.4846 9.48921 15.0905 11.5756 13.3331 13.3331C11.5756 15.0905 9.48921 16.4846 7.19298 17.4358C4.91207 18.3806 2.46851 18.8699 3.60453e-07 18.8764Z" fill="#464182"/>
<path fill-rule="evenodd" clip-rule="evenodd" d="M18.8764 46L27.1226 46C27.1226 42.4382 26.421 38.9113 25.058 35.6206C23.695 32.33 21.6971 29.34 19.1786 26.8214C16.66 24.3029 13.67 22.305 10.3794 20.942C7.0887 19.579 3.56179 18.8774 -1.18557e-06 18.8774L-8.25113e-07 27.1236C2.46851 27.1301 4.91207 27.6194 7.19298 28.5642C9.48921 29.5154 11.5756 30.9095 13.3331 32.6669C15.0905 34.4244 16.4846 36.5108 17.4358 38.807C18.3806 41.0879 18.8699 43.5315 18.8764 46Z" fill="#6B63C3"/>
<path fill-rule="evenodd" clip-rule="evenodd" d="M46 27.1236L46 18.8774C42.4382 18.8774 38.9113 19.579 35.6206 20.942C32.33 22.305 29.34 24.3029 26.8214 26.8214C24.3029 29.34 22.305 32.33 20.942 35.6206C19.579 38.9113 18.8774 42.4382 18.8774 46L27.1236 46C27.1301 43.5315 27.6194 41.0879 28.5642 38.807C29.5154 36.5108 30.9095 34.4244 32.6669 32.6669C34.4244 30.9095 36.5108 29.5154 38.807 28.5642C41.0879 27.6194 43.5315 27.1301 46 27.1236Z" fill="#9B93F3"/>
<path fill-rule="evenodd" clip-rule="evenodd" d="M46 18.8764L46 27.1226C42.4382 27.1226 38.9113 26.421 35.6206 25.058C32.33 23.695 29.34 21.6971 26.8214 19.1786C24.3029 16.66 22.305 13.67 20.942 10.3794C19.579 7.0887 18.8774 3.56179 18.8774 -2.37113e-06L27.1236 -1.65023e-06C27.1301 2.46851 27.6194 4.91207 28.5642 7.19298C29.5154 9.48921 30.9095 11.5756 32.6669 13.3331C34.4244 15.0905 36.5108 16.4846 38.807 17.4358C41.0879 18.3806 43.5315 18.8699 46 18.8764Z" fill="#CDC9FF"/>
</svg>
